<?xml version="1.0" encoding="UTF-8"?><svg width="24px" height="24px" viewBox="0 0 24 24" stroke-width="1.5" fill="none" xmlns="http://www.w3.org/2000/svg" color="#000000"><path d="M12 7l1.53 1.304 2.006.16.16 2.005L17 12l-1.305 1.53-.16 2.006-2.004.16L12 17l-1.53-1.305-2.006-.16-.16-2.004L7 12l1.304-1.53.16-2.006 2.005-.16L12 7z" stroke="#000000" stroke-width="1.5"></path><path d="M10.47 15.695L12 17V7l-1.53 1.304-2.006.16-.16 2.005L7 12l1.304 1.53.16 2.006 2.005.16z" fill="#000000"></path><path d="M21 3.6v16.8a.6.6 0 01-.6.6H3.6a.6.6 0 01-.6-.6V3.6a.6.6 0 01.6-.6h16.8a.6.6 0 01.6.6z" stroke="#000000" stroke-width="1.5" stroke-linecap="round" stroke-linejoin="round"></path></svg>